<svg xmlns="http://www.w3.org/2000/svg" width="682.667" height="682.667" version="1.0" viewBox="0 0 512 512"><path d="M252.2 14.7c-1.8.2-3 .9-2.7 1.4.4.5-1.7.9-4.7 1-5.4 0-10.5.6-28.8 3.4-5.8.9-11.6 1.7-13 1.8-1.4.1-2.7.4-3 .7-.5.6-14 3-17.5 3.1-1 0-2.4.4-3 .8-.5.5-3.2 1.2-6 1.6-2.7.4-5.5 1.1-6.2 1.7-.7.5-1.7.7-2.3.3-.6-.4-1.6-.2-2.3.3-.7.5-3 1.3-5.2 1.7-2.2.4-4.6 1.1-5.2 1.7-.7.6-2 .8-2.8.4-.8-.3-1.5-.2-1.5.3s-2 1.2-4.5 1.5c-2.5.4-4.5 1.2-4.5 1.7 0 .6-.9.7-2 .4-1.1-.4-2-.2-2 .4 0 .6-.8 1.1-1.7 1.1-1 0-3 .6-4.4 1.4-1.4.7-3.8 1.6-5.4 2-1.6.4-4.8 1.6-7 2.6s-5.3 2.2-6.8 2.5c-1.5.4-2.7 1.1-2.7 1.6s-.6.9-1.3.9c-.6 0-5.7 2.2-11.2 4.9-5.5 2.7-10.4 5-11 5.2-.5.1-1.5.7-2.2 1.3-3 2.7-4.3 3.6-4.8 3.6-1.7 0-18.2 12.2-25.6 18.9-1.8 1.7-3.7 2.7-4.2 2.4-.6-.3-.7-.1-.3.5.3.5-1.1 2.9-3.1 5.2-2.1 2.3-5.5 6.7-7.5 9.8-2 3.1-4.2 6.3-4.8 7-.6.7-.8 1.7-.5 2.2.3.6.1 1-.4 1-.6 0-1.1.6-1.1 1.4 0 .8-.5 2.7-1.2 4.3-1.7 4.2-2 6.8-2 17.8 0 12.6.2 14.5 1.3 14.5.5 0 .9.7.9 1.6 0 3 5.7 13.9 10.6 20.4 5.2 6.8 15.1 16.8 21.9 22.1 5.2 4.1 16.7 11.6 19.9 13.1 1.4.6 2.6 1.5 2.6 1.9 0 .4 1.6 1.3 3.5 1.9 1.9.6 3.5 1.6 3.5 2.1s.5.9 1.2.9c.6 0 3 .8 5.2 1.9 12.4 5.7 15.6 7.1 16.5 7.1.6 0 1.1.5 1.1 1 0 .6.6 1 1.3.9.6-.1 2.5.3 4 .9 1.6.7 3.5 1.2 4.3 1.2.8 0 1.4.4 1.4.8 0 .5 2.5 1.5 5.5 2.2 3.1.7 5.8 1.7 6.1 2.1.2.4 3 1.3 6.2 1.9 3.1.7 6.2 1.6 6.7 2 .6.5 2.8 1.2 5 1.6 2.2.4 4.6 1.4 5.3 2.3.8.9 1.1 1 .7.3-.4-.8.1-1.2 1.4-1.2 1.2 0 2.1.4 2.1.9s2.5 1.3 5.5 1.6c3 .4 5.5 1.1 5.5 1.6s1.1.7 2.5.3c1.4-.3 3.1-.2 3.8.4.6.6 3.8 1.3 7 1.7 3.1.4 6 1.1 6.3 1.6.3.6 2 .7 3.9.3 1.8-.3 3.5-.1 3.9.4.3.6 4.1 1.3 8.4 1.7 4.2.4 8.2 1.2 8.9 1.7.7.5 2.2.7 3.4.3 1.2-.4 3.9-.1 6.1.6 3.4 1.1 4.1 1 5.6-.5 1.6-1.7 1.5-1.8-1.5-1.1-1.9.4-3.3.3-3.3-.3 0-.5-2.4-1.3-5.4-1.6-3.4-.5-5.6-1.3-6-2.2-.3-.9-1-1.2-1.6-.9-1.1.7-12.9-1.4-14.5-2.5-.5-.4-4-1.3-7.8-2-3.7-.7-7-1.6-7.2-2.1-.3-.4-2.6-1.1-5-1.5-2.5-.3-4.5-1-4.5-1.4 0-.5-.9-.6-2-.3s-2 .1-2-.5c0-.5-2-1.3-4.5-1.6-3.3-.5-4.5-1.2-4.5-2.4 0-1.4-.2-1.5-.9-.3-.7 1.1-1.3 1.2-2.3.4-.7-.6-3.7-1.6-6.5-2.4-2.9-.7-5.3-1.6-5.3-2 0-.3-1.4-.9-3-1.3-1.7-.3-5.6-1.8-8.8-3.3-3.1-1.4-6-2.6-6.4-2.5-.5.1-.8-.2-.8-.8 0-.5-.6-1-1.2-1-1.2 0-11.8-5-12.8-6-.3-.3-3.1-1.9-6.3-3.5-3.2-1.7-6.1-3.3-6.3-3.7-.3-.4 1.4-1.2 3.6-1.9s4-1.5 4-1.9c0-.4 2.8-1.3 6.3-2 3.4-.7 6.7-1.6 7.2-2.1 2.6-1.9 22-4.2 35.5-4.2 13.2 0 33.8 2.4 37.2 4.3 1 .6 2.6 1 3.6 1s2.2.3 2.5.6c.4.4 2.3.8 4.3 1 2 .2 4.1.7 4.8 1.2.6.5 3.4 1.5 6.1 2.1 4.6 1.1 8.1 2.5 17.5 6.9 1.9 1 3.6 2 3.8 2.4.2.4 1 .4 1.8.1.8-.3 1.4 0 1.4.6s.6 1.1 1.4 1.1c.8 0 2.2.8 3.2 1.7 1 1 2 1.8 2.3 1.8.3 0 .5.4.3.8-.1.5.2.6.8.2 1.5-.9 25 12.8 25 14.5 0 .4.8 1 1.8 1.4.9.3 3.2 1.7 5.1 3.1 1.9 1.4 3.8 2.5 4.2 2.5.5 0 .9-27.6.9-61.4v-61.4l19.8-.6c29.2-1 51.1-2.9 54.9-4.8 1.2-.6 3.6-.8 5.2-.5 1.8.4 3.1.2 3.1-.3 0-.6 1.2-1 2.8-1 3.5.1 9.4-1 10.7-2 .6-.4 4.3-1.3 8.3-2 3.9-.7 7.2-1.6 7.2-2 0-.4 2-1.1 4.5-1.4 2.4-.4 4.7-1.1 5-1.6.3-.5 1.2-.7 2-.3.8.3 1.5.1 1.5-.4s2.3-1.5 5-2.2c2.8-.7 5-1.7 5-2.1 0-.5 1.4-1.1 3-1.5 1.7-.4 3-1 3-1.4 0-.4 1.5-1.2 3.3-1.9 3.3-1.2 6.6-3.6 14-10.1 4.7-4.2 8.7-11.8 8.7-16.6 0-5.1-4-12.4-9.8-17.5-6.8-6.1-6.9-6.2-13.2-9.6-3-1.6-5.8-3.3-6.1-3.7-.3-.5-.8-.8-1-.7-.2.1-1.7-.3-3.2-.9-1.5-.6-4-1.4-5.4-1.7-1.5-.4-3.8-1.3-5.2-2-1.4-.8-3.4-1.4-4.3-1.4-.9 0-2-.5-2.3-1.1-.4-.6-1.3-.8-2.1-.5-.7.3-1.6.1-1.9-.3-.2-.5-2.6-1.2-5.2-1.6-2.7-.4-5.2-1-5.8-1.5-.5-.4-1.7-.8-2.5-.8-3.2-.1-14.6-2.3-16.1-3.2-.9-.4-5.3-1.2-9.7-1.5-4.5-.4-8-1.1-7.8-1.4.6-1-9.5-1.3-48.4-1.4-19-.1-38.3.2-42.9.7-6.3.7-8.2.6-7.7-.2.4-.7.6-1.1.4-1-.2 0-1.8.3-3.6.5zm45.2 15.9c1.3.5 1.6 2.4 1.6 10.5V51h-20v-9.9c0-7 .4-10.1 1.3-10.4 1.8-.8 15.2-.8 17.1-.1zm-32.6 10.7.3 9.7h-3.4c-1.9 0-6.2.3-9.6.6l-6.2.7.3-9.9c.3-9.5.4-9.8 2.8-10.5 1.4-.4 5.4-.7 9-.6l6.5.2.3 9.8zm67 1.1.3 10.9-3.8-.7c-2.1-.3-6.4-.6-9.5-.6H313V31.5h18.5l.3 10.9zm-100.8 1v9.4l-5.2.6c-2.9.3-7.2.9-9.6 1.2l-4.3.6.3-9.8.3-9.9 3.2.3c1.7.2 3.4-.2 3.8-.7.3-.6 3.1-1.1 6.1-1.1h5.4v9.4zM351.5 35c.3.5 1.8.9 3.3.9 1.5 0 4.5.3 6.7.8l4 .8.3 10.8c.3 10.1.2 10.7-1.7 10.7-1.1 0-2.3-.4-2.6-1-.3-.5-1.6-1-2.8-1-1.2 0-4.2-.3-6.7-.7l-4.5-.8-.3-10.8c-.3-10.1-.2-10.7 1.7-10.7 1.1 0 2.2.4 2.6 1zM197 47.4c0 9.6-.5 11.2-3 9.6-.9-.6-2-.4-3 .4-.8.8-4.1 1.7-7.2 2.1l-5.8.6.3-9.3.2-9.3 7.3-.9c3.9-.5 7.2-1.3 7.2-1.7 0-.5.9-.9 2-.9 1.9 0 2 .7 2 9.4zm190.2-4.6c.2.4 3 1.4 6.3 2.2l6 1.5.3 10.7c.2 8.3 0 10.8-1 10.8-1.6 0-8.7-1.8-11.3-2.9-1.1-.5-3.2-1.3-4.7-2C380 62 380 62 380 52V42h3.4c1.9 0 3.6.3 3.8.8zM163 55c0 8.4-.1 9-2 9-1.1 0-2.8.4-3.8.9-1.6.9-10.1 3.1-11.9 3.1-.4 0-.7-4-.5-9l.3-9 6-1.2c3.2-.6 5.9-1.6 5.9-2 0-.4 1.4-.8 3-.8h3v9zm259.8 3.2c.2.5.7.6 1 .4.4-.2 2.5.8 4.7 2.3l4 2.7.3 11.2c.1 6.2 0 11.2-.2 11.2-.3 0-2.6-1.4-5.1-3.1-2.6-1.7-6.5-4.1-8.8-5.4l-4.2-2.2-.3-9.8c-.4-12.9-.2-13.3 4.5-10.4 2.1 1.3 4 2.7 4.1 3.1zM129 64.9v8.8l-4.7 1.3c-2.7.8-5 1.6-5.3 2-.6.8-7.2 3.2-7.6 2.8-.3-.4-.6-8.2-.5-13.6.1-2.6.5-4.1 1.1-3.7.6.3 1 .1 1-.6s.8-.9 2.1-.6c1.2.3 1.8.3 1.5 0-.9-1 7.5-4.7 11.7-5.2.4-.1.7 3.9.7 8.8zM95 79v8.9l-5.4 2.6c-3 1.4-7 3.6-9 5L77 97.9V80.5l4.2-2.5c4.8-2.9 13.2-7.8 13.6-7.9.1-.1.2 3.9.2 8.9zm-35.1 31.7c-.7 1.3-1.9 2.5-2.8 2.8-.9.4-4.3 4-7.6 8l-6 7.5-.3-6.4c-.4-9.4 1.2-12.5 12.8-24.8l4.5-4.7.3 7.7c.2 4.6-.2 8.5-.9 9.9zm116.3 63c.2 4.3.2 8.3 0 9-.3.9-3 1.1-9.5.9l-9.2-.3-.3-8.7-.3-8.6h18.9l.4 7.7zm-35.6-5.7c1.2 0 1.4 1.6 1.2 8.7l-.3 8.8-3-.2c-1.6-.1-3.2.1-3.5.5-.6 1-11.8 3.1-12.5 2.4-.8-.9-.5-15.6.3-16.9.5-.7 3-1.6 5.8-1.9 2.7-.4 5.6-1 6.4-1.5.8-.5 2.1-.6 2.8-.4.8.3 2 .5 2.8.5zm63.8 2.9c.6.5 2.2 1.1 3.6 1.3 2.4.3 2.5.6 2.8 9 .3 8.5.2 8.7-2 8.4-1.3-.1-3-.5-3.8-.9-.8-.3-4-1-7-1.4l-5.5-.8-.3-8.9-.3-8.9 5.7.7c3.2.4 6.2 1.1 6.8 1.5zM107 185.5c0 6.9-.3 9.5-1.2 9.5-.7 0-2.6.7-4.2 1.5-1.5.8-3.2 1.3-3.6 1-.5-.3-1-.2-1.2.2-.4 1-6.6 4.3-7.9 4.3-.6 0-.9-4-.7-9.7l.3-9.6 4-1.4c2.2-.7 5.4-2 7-2.7 3.5-1.6 5.7-2.4 6.8-2.5.4-.1.7 4.2.7 9.4zm123.5-6.6c.3.5 2 1.3 3.8 1.6 1.7.4 5.1 1.6 7.5 2.6l4.2 1.9v18.2l-2.7-.7c-1.6-.3-2.9-1.1-3.1-1.5-.2-.5-1.9-1.2-3.8-1.6-1.9-.3-3.4-1-3.4-1.5s-.7-.6-1.5-.3c-.8.4-1.5.1-1.5-.5s-.7-1.1-1.5-1.1c-1.2 0-1.5-1.7-1.5-9 0-7.2.3-9 1.4-9 .8 0 1.7.4 2.1.9zm38.4 16.3c3.6 1.7 6.8 3.5 7.1 3.8.3.4 1.5 1 2.8 1.4 2.1.7 2.2 1.2 2.2 10.8 0 5.5-.3 9.8-.7 9.6-.5-.3-2.7-1.3-5-2.3-2.4-1-4.3-2.1-4.3-2.5 0-.5-1-1-2.3-1.4-1.3-.3-3.6-1.7-5-3-2.5-2.4-2.7-3-2.5-11 .1-4.8.4-8.6.7-8.6.2 0 3.4 1.4 7 3.2zM450.6 94.5c-5.4 3.7-11.3 6.5-12 5.8-.3-.4-.6-.2-.6.4 0 .5-1.1 1.5-2.5 2.1-2.5 1.1-2.5 1.3-2.5 13.5 0 6.8.2 12.6.5 12.9.3.3 3-.7 6-2.2 3-1.6 5.5-2.6 5.5-2.3 0 .2.6-.2 1.4-.9.7-.7 3.4-2.5 6-4l4.6-2.8v-12.5c0-14-.2-14.2-6.4-10z"/><path d="M407.5 114c-3.3.9-6.7 1.9-7.5 2.3-.8.3-3.2 1.1-5.2 1.7l-3.8 1.2v27l3.3-.6c1.7-.3 3.8-.7 4.5-.8.6-.1 1.2-.5 1.2-1 0-.4.7-.8 1.6-.8 2.1 0 11.7-4.1 12.6-5.4.4-.6.8-6.1.8-12.1 0-6.1-.4-11.5-.8-12.1-.5-.7-2.6-.5-6.7.6zM366.4 124.1c-.3.6-2 .9-3.6.7-1.6-.3-3.1-.1-3.4.4-.3.4-2.1.8-4 .8-7.3 0-7.4.3-7.4 17 0 8.2.4 15.1.9 15.4.9.6 10-.9 13.1-2.1.8-.3 2.3-.5 3.3-.4.9.1 1.7-.2 1.7-.8 0-.5 1-1.1 2.3-1.3 2.1-.3 2.2-.6 2.5-14.7.2-10.9-.1-14.6-1-15.3-1.8-1.1-3.6-1-4.4.3zM310.3 131.1l-3.3 1v17.3c0 14.9.2 17.5 1.6 18 .8.3 2.3.2 3.2-.3.9-.5 4.6-1.2 8.2-1.6 11.3-1.2 11.1-.9 10.8-19.3l-.3-15.7-8.5-.2c-4.7-.1-10 .3-11.7.8zM22 242c0 39.5.4 70.2.9 70.5.5.3 1.2 2.4 1.6 4.8.4 2.3 1 4.6 1.4 5.2.3.5.6 1.2.7 1.5 0 .3.6 1.8 1.2 3.3.7 1.6 1.2 3.5 1.2 4.3 0 .8.4 1.4.9 1.4s1.2 1.1 1.5 2.5c.3 1.3 1 3.4 1.5 4.7.5 1.3.9 2.7.9 3.2s.4 1.2.9 1.5c.4.3 2.1 3.1 3.7 6.1 2.9 5.5 9.7 16.6 11.4 18.6.5.5 1.5 2.1 2.2 3.4.7 1.4 1.8 3 2.4 3.6.6.6 2.7 3.1 4.6 5.5C69.3 395 96.9 422 99.8 422c.6 0 1.5.6 1.9 1.4.8 1.5 2.1 2.4 15.9 11.7 12.6 8.4 23.5 14.9 25.2 14.9.6 0 1.2.3 1.4.7.2.5 3 2.1 6.3 3.8 3.3 1.6 6.2 3.3 6.3 3.7.2.5.8.8 1.4.8.6 0 3.4 1.1 6.2 2.4 9.5 4.4 14.5 6.6 15.3 6.6.4.1 2.6.9 4.8 2 2.2 1.1 4.6 1.9 5.3 2 .6 0 1.2.5 1.2 1.1 0 .5.5.7 1 .4.6-.4 1.6-.3 2.3.3.7.5 3.5 1.5 6.2 2.2 2.8.7 5.5 1.7 6 2.1.6.4 2.7 1 4.8 1.4 2 .4 3.7 1.2 3.7 1.7 0 .6.7.8 1.5.5.8-.4 1.7-.2 2 .2.3.5 2.8 1.2 5.5 1.6 2.8.4 5 1.1 5 1.7 0 .6.9.8 2 .5 1.1-.3 2.2-.1 2.5.3.3.4 2.9 1.1 5.8 1.5 2.8.4 5.7 1.1 6.2 1.5.6.4 1.7.8 2.5.9 3.6.3 15.6 2.7 16.5 3.2.6.4 4.2 1 8 1.4 3.9.4 7.4 1 8 1.3.5.4 2.3.5 3.9.3 1.6-.1 3.8.2 5 .8 3.8 1.9 26.6 3.1 59.1 3 32.8 0 53.9-1.1 58.7-3 1.6-.6 4.4-.8 6.4-.5 2.1.5 3.4.4 3-.2-.3-.5 2.4-1.2 6.1-1.6 3.7-.4 7.2-1.1 7.8-1.5.5-.5 4.7-1.4 9.3-2.1 4.5-.7 8.5-1.6 8.7-2 .3-.5 2.4-1.1 4.8-1.5 2.3-.4 4.7-1.2 5.4-1.7.7-.5 1.7-.7 2.2-.4.5.4 1.2.2 1.5-.3.4-.5 2.4-1.2 4.6-1.6 2.2-.4 4.2-1.1 4.6-1.6.3-.5.9-.7 1.4-.4.5.3 1.1.1 1.5-.5.3-.5 1.2-1 2-1s2.6-.5 4.2-1.2c1.5-.6 3-1.2 3.3-1.3.3-.1 1.8-.7 3.3-1.3 1.6-.7 3.3-1.2 3.8-1.2s.9-.5.9-1c0-.6.7-1 1.5-1 1.3 0 1.5-13.6 1.5-116 0-63.8-.4-116-.8-116-2.5 0-12.2 2.4-12.2 3 0 .4-2.8 1.3-6.2 2-3.5.7-6.8 1.7-7.3 2.1-.6.4-3 1.1-5.3 1.5-2.3.4-4.5 1-4.8 1.5-.2.4-1.1.6-1.9.2-.9-.3-2.1-.1-2.8.5-.6.5-3.4 1.3-6.2 1.7-2.7.4-5.5 1.1-6.2 1.7-.7.5-2.1.7-3.2.3-1-.3-2.2-.2-2.5.4-.3.5-3.7 1.2-7.6 1.6-3.9.4-7.3 1.1-7.6 1.6-.3.6-1.5.7-2.6.3-1.1-.3-3-.1-4.2.4-3 1.5-15.5 3.1-40.1 5.2-6.6.6-14.7 1.5-18 2-11.1 1.8-85.5 1.7-90.2-.1-1.3-.5-8-1.1-15-1.4-6.9-.3-13.1-.9-13.7-1.3-.6-.3-3.1-.7-5.6-.8-2.5-.2-9-1-14.5-1.8-5.5-.9-11.3-1.6-12.9-1.6-1.5 0-3.3-.4-4-.9-.6-.5-3.9-1.2-7.4-1.6-3.4-.4-6.5-1.1-6.8-1.6-.3-.6-1.5-.7-2.5-.4-1.1.4-2.5.2-3.2-.3-.7-.6-3.8-1.3-6.9-1.7-3.2-.4-5.8-1.2-5.8-1.7s-.9-.7-1.9-.3c-1.1.3-2.2.2-2.5-.4-.3-.5-2.9-1.2-5.6-1.6-2.8-.4-5-1.1-5-1.6 0-.6-.6-.9-1.2-.8-1.5.3-9.3-1.7-12.3-3.1-1.1-.5-4-1.4-6.5-2.1-2.5-.6-4.9-1.4-5.5-1.9-.5-.4-2.5-1.1-4.2-1.5-1.8-.3-3.3-1.1-3.3-1.6 0-.6-.4-.8-.9-.5-.8.5-2.8-.2-12.6-4.4-1.1-.5-5-2.2-8.8-3.9-3.7-1.7-7.2-3.1-7.7-3.1-.6 0-1-.5-1-1 0-.6-.6-1-1.2-1-.7 0-3.9-1.6-7-3.5-3.2-1.9-5.8-3.1-5.8-2.7 0 .4-.4.2-.8-.4-.4-.6-2.9-2.4-5.7-3.9-2.7-1.6-5.4-3.5-5.8-4.2-.4-.7-1.3-1.3-1.9-1.3-4.2 0-34.8-30-34.8-34.2 0-.4-.7-.8-1.5-.8-1.3 0-1.5 8.2-1.5 70zm31.8-27.2c2.1 1.5 4.3 3.5 5 4.4.7 1 1.7 1.8 2.2 1.8.6 0 1.8.7 2.7 1.4 1 .8 2.8 2.3 4.1 3.3 2.2 1.7 2.3 2.4 2 12.6l-.3 10.8-10-9.8c-5.5-5.4-11.7-11.8-13.7-14.3-3.7-4.4-3.8-4.7-3.8-13v-8.5l4.1 4.3c2.3 2.3 5.7 5.5 7.7 7zm42.1 28.3c1.7.6 3.1 1.5 3.1 2s.5.9 1.2.9c.6 0 3.4 1.1 6.2 2.4 2.8 1.3 7.2 3.3 9.9 4.5l4.7 2.1v13c0 8.5-.4 13-1.1 13-1.5 0-17.7-8.7-19.5-10.5-.9-.8-2.1-1.5-2.7-1.5-.7-.1-2.2-.9-3.4-1.9-2.1-1.8-2.3-2.7-2.3-13.5 0-6.4.2-11.6.4-11.6.1 0 1.7.5 3.5 1.1zm51 21.5c.5-.4 1.2-.2 1.5.3.3.5 2.3 1.2 4.3 1.6 2.1.4 4.2 1 4.8 1.3 1.3.8 1.8 1 8.8 2.4l5.7 1.1v15.3c0 9.1-.4 15.5-1 15.9-.5.3-1 .2-1-.3 0-.6-1.7-1.3-3.7-1.7-2.1-.4-5.6-1.5-7.8-2.5s-5.5-2.1-7.2-2.5c-1.8-.3-3.3-1-3.3-1.5s-1-1-2.2-1.2c-2.3-.3-2.3-.6-2.6-15.2-.2-13.1-.1-14.7 1.2-13.7.8.7 2 1 2.5.7zm329.9 15.2c.2 7 .1 15.5-.3 18.9-.5 5.2-1 6.3-2.5 6.3-1 0-2.1.4-2.4.9-.3.4-3.4 1.4-6.8 2.1-3.5.7-6.5 1.7-6.8 2.1-.3.4-2.6 1-5.2 1.4l-4.8.7v-18.6c0-11.3.4-18.5.9-18.1.5.3 1.2.1 1.5-.4.3-.5 2.9-1.2 5.6-1.6 2.8-.4 5-1 5-1.5 0-.4 2.9-1.3 6.5-2s6.5-1.6 6.5-2.1.6-.9 1.3-.9c.9 0 1.3 3.4 1.5 12.8zM210 280c.8.4 4.1 1.1 7.3 1.4l5.7.7V315h-2.9c-1.7 0-3.3-.4-3.6-1-.3-.5-1.6-1-2.8-1-3.8 0-14.7-2.3-14.7-3.2 0-.4-.9-.8-2-.8-1.9 0-2-.6-1.9-15.6v-15.6l6.7.7c3.7.4 7.4 1.1 8.2 1.5zm216.2 18.2c.2 11.3-.1 17.6-.8 18.6-.8 1.1-1.3 1.2-1.8.3-.6-.9-1.1-.9-2.3.1-.9.7-5.7 1.8-10.7 2.4-5 .6-9.9 1.4-10.8 1.8-1.7.8-1.8-.5-1.8-18.3V284l2.5-.6c1.4-.3 3.5-.4 4.7-.1 1.2.4 2.7.2 3.3-.3 1-.8 5.6-1.4 13.7-1.8l3.7-.2.3 17.2zm-158.4-11h5.2v36l-2.7-.7c-1.6-.3-4.6-.8-6.8-1-7.1-.6-16-2.1-17.3-2.8-.9-.6-1.2-5.1-1.2-16.6 0-8.7.2-16 .4-16.2.3-.2 4.2 0 8.8.4 4.6.5 10.7.9 13.6.9zm108 17.4c.1 9.3-.1 17.4-.5 18-.5.7-6.4 1.4-14.5 1.8l-13.8.7v-35.9l6.8-1c3.7-.5 10.1-.8 14.2-.7l7.5.2.3 16.9zm-51.8 2.9V326l-6.2-.1c-3.5 0-9.8-.6-14.1-1.2l-7.8-1.2v-16.8c0-9.2.1-16.9.1-17.2 0-.3 6.3-.5 14-.5h14v18.5zM47.2 323.6c1.8 2.1 5.2 5.9 7.5 8.4 2.4 2.6 3.9 5 3.5 5.4-.4.4-.2.6.4.4.5-.2 3.4 1.8 6.2 4.4l5.2 4.6v10.6c0 5.8-.3 10.6-.7 10.6-1.7 0-17.3-17.7-23.5-26.7-3.8-5.3-3.8-5.4-3.8-15.1.1-6.7.4-9.2 1-8.1.5.9 2.4 3.4 4.2 5.5zm51.5 46.1c8.6 6 18.6 12.3 20.6 12.9 1.5.6 1.7 2.1 1.7 13.6v13l-2.2-1.6c-1.3-.9-3.3-2.1-4.6-2.6-2.1-.9-7.2-4.3-9.8-6.5-.7-.6-3.7-2.8-6.8-5l-5.6-3.9v-11.8c0-6.5.3-11.8.6-11.8.4 0 3.1 1.7 6.1 3.7zm49.6 28.3c2 .8 3.7 1.8 3.7 2.2 0 .4.8.8 1.8.8.9 0 4 1.1 6.7 2.5 2.8 1.3 5.6 2.5 6.3 2.5.6 0 1.2.4 1.2.9s.8.8 1.8.7c1.5-.1 1.7 1.3 2 13.6.2 9-.1 13.8-.8 13.8-.5 0-1-.4-1-.9 0-.4-2-1.4-4.5-2.1-2.5-.7-4.5-1.6-4.5-1.9 0-.4-2-1.3-4.4-2-2.5-.7-4.6-1.6-4.8-2-.2-.4-2.1-1.4-4.3-2.2l-4-1.5-.3-13.3c-.1-7.3.1-13.1.5-12.9.4.2 2.5 1 4.6 1.8zm53.5 21.1c.2.4.9.6 1.7.3.7-.3 1.6-.1 1.9.5.4.5 2.7 1.3 5.1 1.7 2.5.3 4.5 1 4.5 1.4 0 .4 1.8 1 4 1.4l4 .6v13.6c0 12.4-.1 13.5-1.7 13-1-.3-3.5-.8-5.6-1.2-2-.3-3.9-1-4.2-1.4-.3-.5-2.3-1.1-4.5-1.5-2.2-.4-4.2-1.1-4.6-1.6-.3-.5-.9-.7-1.4-.4-.5.3-1.1.1-1.5-.5-.3-.5-1.5-1-2.6-1-1.8 0-1.9-.8-1.9-13.6v-13.6l3.3.7c1.7.4 3.3 1.1 3.5 1.6zm274.7 11.6c.3 3.8.5 10.5.3 15l-.3 8.2-6.2 1.2c-3.5.7-6.3 1.7-6.3 2.2 0 .5-1.1.7-2.5.5-1.3-.3-2.6-.2-2.7.3-.2.4-2.7 1.1-5.5 1.5l-5.3.7v-13.1c0-14 .4-16.4 2.6-15.5.8.3 1.4.1 1.4-.4s2.9-1.5 6.5-2.2c3.6-.7 6.5-1.7 6.5-2.1 0-.6 6.3-2.5 9.6-2.9.8-.1 1.5 2.5 1.9 6.6zm-217.7 2.4c5.6.7 10.2 1.7 10.2 2.1 0 .4.9.8 2 .8 1.9 0 2 .7 2 13.6v13.6l-5.2-.7c-2.9-.4-6-1.1-6.8-1.5-.8-.4-3.9-1.1-6.9-1.5-8.6-1.2-9.1-2-9.1-15.1 0-12.1.5-15 2.4-13.5.6.5 5.7 1.5 11.4 2.2zm167 18.1-.3 14.3-7.5.8c-4.1.4-10.3 1.1-13.8 1.6l-6.3.8.3-14.1.3-14.1 6.5-.8c3.6-.4 8.4-.9 10.8-1.1 2.4-.2 4.6-.7 4.9-1 .4-.3 1.7-.6 3-.6h2.4l-.3 14.2zM309 440.7c2.5.3 6.9.5 9.8.4l5.2-.2v28l-3.2-.4c-1.8-.3-8.1-.7-14-1.1l-10.8-.6-.1-9.9c-.3-19.5-.7-17.8 4.4-17.3 2.3.3 6.2.8 8.7 1.1zm66.3 2.7c.7 1.8.8 20.4.1 23.8l-.6 2.8H347v-28h13.9c10.8 0 14 .3 14.4 1.4zM496.5 356c0 63 .1 88.7.2 57.3.2-31.5.2-83.1 0-114.5-.1-31.5-.2-5.8-.2 57.2z"/></svg>